<?xml version="1.0" encoding="UTF-8" standalone="no"?>
<!-- Created with Inkscape (http://www.inkscape.org/) -->

<svg
   width="297mm"
   height="210mm"
   viewBox="0 0 297 210"
   version="1.1"
   id="svg5"
   xml:space="preserve"
   inkscape:version="1.2.2 (b0a8486541, 2022-12-01, custom)"
   sodipodi:docname="crisp_dm"
   xmlns:inkscape="http://www.inkscape.org/namespaces/inkscape"
   xmlns:sodipodi="http://sodipodi.sourceforge.net/DTD/sodipodi-0.dtd"
   xmlns="http://www.w3.org/2000/svg"
   xmlns:svg="http://www.w3.org/2000/svg"><sodipodi:namedview
     id="namedview7"
     pagecolor="#ffffff"
     bordercolor="#000000"
     borderopacity="0.25"
     inkscape:showpageshadow="2"
     inkscape:pageopacity="0.0"
     inkscape:pagecheckerboard="0"
     inkscape:deskcolor="#d1d1d1"
     inkscape:document-units="mm"
     showgrid="false"
     inkscape:zoom="1.096075"
     inkscape:cx="1338.412"
     inkscape:cy="511.82627"
     inkscape:window-width="3840"
     inkscape:window-height="2091"
     inkscape:window-x="0"
     inkscape:window-y="0"
     inkscape:window-maximized="1"
     inkscape:current-layer="layer1" /><defs
     id="defs2" /><g
     inkscape:label="Layer 1"
     inkscape:groupmode="layer"
     id="layer1"><g
       id="g419"
       transform="matrix(0.24620841,0,0,0.24620841,12.463822,56.479066)"><path
         d="m 63.069201,29.959491 c 18.70604,0 33.86667,15.160625 33.86667,33.866667 0,18.706041 -15.16063,33.866666 -33.86667,33.866666 -18.70604,0 -33.86666,-15.160625 -33.86666,-33.866666 0,-18.706042 15.16062,-33.866667 33.86666,-33.866667 z m -3.94229,95.038329 -4.92125,-8.20208 c -1.69333,-2.83104 0.34396,-6.40292 3.62479,-6.40292 h 5.23875 5.21229 c 3.28084,0 5.31813,3.59834 3.6248,6.40292 l -4.92125,8.20208 8.83708,32.78188 10.45104,-42.65083 c 20.425839,3.175 36.062709,20.84916 36.062709,42.17458 0,4.49791 -3.65125,8.12271 -8.12271,8.12271 H 73.943581 52.194831 11.925241 c -4.4714495,0 -8.1226995,-3.65125 -8.1226995,-8.12271 0,-21.32542 15.6368695,-38.99958 36.0626995,-42.17458 l 10.45105,42.65083 8.83708,-32.78188 z"
         id="path25"
         style="stroke-width:0.264583" /><path
         d="m 244.05678,59.592822 c 0,-7.011459 5.68854,-12.7 12.7,-12.7 h 8.46667 c 7.01146,0 12.7,5.688541 12.7,12.7 v 93.133328 c 0,7.01147 -5.68854,12.70001 -12.7,12.70001 h -8.46667 c -7.01146,0 -12.7,-5.68854 -12.7,-12.70001 z m -42.33333,50.799998 c 0,-7.01146 5.68854,-12.699998 12.7,-12.699998 h 8.46666 c 7.01146,0 12.7,5.688538 12.7,12.699998 v 42.33333 c 0,7.01147 -5.68854,12.70001 -12.7,12.70001 h -8.46666 c -7.01146,0 -12.7,-5.68854 -12.7,-12.70001 z m 97.36666,-46.566665 h 8.46667 c 7.01146,0 12.7,5.688542 12.7,12.7 v 76.199995 c 0,7.01147 -5.68854,12.70001 -12.7,12.70001 h -8.46667 c -7.01145,0 -12.7,-5.68854 -12.7,-12.70001 V 76.526155 c 0,-7.011458 5.68855,-12.7 12.7,-12.7 z"
         id="path208"
         style="stroke-width:0.264583" /><path
         d="m 175.00841,103.11117 c 1.07032,-1.07033 1.07032,-2.80855 0,-3.878877 l -13.7002,-13.700195 c -1.07033,-1.070327 -2.80854,-1.070327 -3.87887,0 -1.07032,1.070328 -1.07032,2.80854 0,3.878868 l 9.03357,9.025003 h -26.27012 c -1.51559,0 -2.74004,1.224455 -2.74004,2.740041 0,1.51559 1.22445,2.74004 2.74004,2.74004 h 26.26156 l -9.01644,9.025 c -1.07034,1.07033 -1.07034,2.80854 0,3.87887 1.07033,1.07033 2.80853,1.07033 3.87887,0 l 13.70019,-13.70019 z"
         id="path233"
         style="stroke-width:0.0856264" /><path
         d="m 382.50718,103.11117 c 1.07032,-1.07033 1.07032,-2.80855 0,-3.878874 l -13.7002,-13.700198 c -1.07033,-1.070327 -2.80854,-1.070327 -3.87887,0 -1.07032,1.070328 -1.07032,2.80854 0,3.878868 l 9.03357,9.025003 h -26.27012 c -1.51559,0 -2.74004,1.224457 -2.74004,2.740041 0,1.51559 1.22445,2.74004 2.74004,2.74004 h 26.26156 l -9.01644,9.025 c -1.07034,1.07033 -1.07034,2.80854 0,3.87887 1.07033,1.07033 2.80853,1.07033 3.87887,0 l 13.70019,-13.70019 z"
         id="path233-1"
         style="stroke-width:0.0856264" /><path
         d="m 568.64294,103.11117 c 1.07032,-1.07033 1.07032,-2.80855 0,-3.878879 l -13.7002,-13.700195 c -1.07033,-1.070327 -2.80854,-1.070327 -3.87887,0 -1.07032,1.070328 -1.07032,2.80854 0,3.878868 l 9.03357,9.025003 h -26.27012 c -1.51559,0 -2.74004,1.224455 -2.74004,2.740043 0,1.51559 1.22445,2.74003 2.74004,2.74003 h 26.26156 l -9.01644,9.02501 c -1.07034,1.07033 -1.07034,2.80854 0,3.87887 1.07033,1.07033 2.80853,1.07033 3.87887,0 l 13.70019,-13.70019 z"
         id="path233-14"
         style="stroke-width:0.0856264" /><path
         d="m 775.57631,103.11117 c 1.07032,-1.07033 1.07032,-2.80855 0,-3.878876 l -13.7002,-13.700195 c -1.07033,-1.070327 -2.80854,-1.070327 -3.87887,0 -1.07032,1.070328 -1.07032,2.80854 0,3.878868 l 9.03357,9.025003 h -26.27012 c -1.51559,0 -2.74004,1.224455 -2.74004,2.74004 0,1.51559 1.22445,2.74004 2.74004,2.74004 h 26.26156 l -9.01644,9.025 c -1.07034,1.07033 -1.07034,2.80854 0,3.87887 1.07033,1.07033 2.80853,1.07033 3.87887,0 l 13.70019,-13.70019 z"
         id="path233-19"
         style="stroke-width:0.0856264" /><path
         d="m 977.35895,103.11117 c 1.07032,-1.07033 1.07032,-2.80855 0,-3.878878 l -13.7002,-13.700195 c -1.07033,-1.070327 -2.80854,-1.070327 -3.87887,0 -1.07032,1.070328 -1.07032,2.80854 0,3.878868 l 9.03357,9.025003 h -26.27012 c -1.51559,0 -2.74004,1.224455 -2.74004,2.740042 0,1.51559 1.22445,2.74004 2.74004,2.74004 h 26.26156 l -9.01644,9.025 c -1.07034,1.07033 -1.07034,2.80854 0,3.87887 1.07033,1.07033 2.80853,1.07033 3.87887,0 l 13.70019,-13.70019 z"
         id="path233-4"
         style="stroke-width:0.0856264" /><path
         d="M 504.76318,54.666317 485.01733,34.917816 c -3.19352,-3.174471 -7.50623,-4.958292 -11.97769,-4.958292 l -47.99542,-2.6e-5 c -9.35302,0 -16.93333,7.580313 -16.93333,16.933333 l 0.002,101.599999 c 0,9.35037 7.58031,16.93333 16.93333,16.93333 h 67.73162 c 9.31333,0 16.93333,-7.62 16.93333,-16.93333 V 66.630774 c 0,-4.471458 -1.77271,-8.784167 -4.94771,-11.964457 z m -7.75229,93.826533 c 0,2.33786 -1.89548,4.23334 -4.23333,4.23334 h -67.72805 c -2.33838,0 -4.23333,-1.89548 -4.23333,-4.23334 l -0.005,-101.565597 c 0,-2.337857 1.89548,-4.233332 4.23333,-4.233332 h 42.33335 v 21.13227 c 0,4.675187 3.79148,8.466666 8.46666,8.466666 h 20.92854 v 76.199993 z m -63.5,-44.44999 c 0,3.51896 2.8575,6.35 6.35,6.35 h 38.1 c 3.51896,0 6.35,-2.83104 6.35,-6.35 0,-3.51896 -2.83104,-6.350003 -6.35,-6.350003 h -38.1 c -3.4925,0 -6.35,2.857503 -6.35,6.350003 z m 44.45,19.05 h -38.1 c -3.4925,0 -6.35,2.8575 -6.35,6.35 0,3.49249 2.84427,6.34999 6.35,6.34999 h 38.1 c 3.50573,0 6.35,-2.84427 6.35,-6.34999 0,-3.50573 -2.83104,-6.35 -6.35,-6.35 z"
         id="path258"
         style="stroke-width:0.264583" /><path
         d="m 589.09861,63.826162 c 0,-9.339792 7.59354,-16.933333 16.93333,-16.933333 h 101.6 c 9.33979,0 16.93334,7.593541 16.93334,16.933333 v 84.666668 c 0,9.33979 -7.59355,16.93333 -16.93334,16.93333 h -101.6 c -9.33979,0 -16.93333,-7.59354 -16.93333,-16.93333 z m 16.93333,0 v 16.933333 h 16.93333 V 63.826162 Z m 101.6,0 h -67.73333 v 16.933333 h 67.73333 z m -101.6,33.866667 v 16.933331 h 16.93333 V 97.692829 Z m 101.6,0 h -67.73333 v 16.933331 h 67.73333 z m -101.6,33.866661 v 16.93334 h 16.93333 v -16.93334 z m 101.6,0 h -67.73333 v 16.93334 h 67.73333 z"
         id="path283"
         style="stroke-width:0.264583" /><path
         d="m 922.48619,97.692823 c 0,37.412087 -30.32125,67.733337 -67.73334,67.733337 -37.41208,0 -67.73333,-30.32125 -67.73333,-67.733337 0,-37.412083 30.32125,-67.733333 67.73333,-67.733333 37.41209,0 67.73334,30.32125 67.73334,67.733333 z M 863.21952,55.35949 c 0,-4.683125 -3.78354,-8.466667 -8.46667,-8.466667 -4.68312,0 -8.46666,3.783542 -8.46666,8.466667 0,4.683125 3.78354,8.466667 8.46666,8.466667 4.68313,0 8.46667,-3.783542 8.46667,-8.466667 z m -8.46667,84.66667 c 9.3398,0 16.93334,-7.59355 16.93334,-16.93334 0,-4.60375 -1.82563,-8.7577 -4.78896,-11.80041 l 16.95979,-38.549795 c 1.40229,-3.201458 -0.0529,-6.958542 -3.25437,-8.360833 -3.20146,-1.402292 -6.95855,0.05292 -8.36084,3.254375 l -16.98625,38.523333 c -0.15875,0 -0.34396,0 -0.50271,0 -9.33979,0 -16.93333,7.59354 -16.93333,16.93333 0,9.33979 7.59354,16.93334 16.93333,16.93334 z M 833.58619,68.05949 c 0,-4.683125 -3.78354,-8.466667 -8.46667,-8.466667 -4.68312,0 -8.46667,3.783542 -8.46667,8.466667 0,4.683125 3.78355,8.466667 8.46667,8.466667 4.68313,0 8.46667,-3.783542 8.46667,-8.466667 z m -21.16667,38.1 c 4.68313,0 8.46667,-3.78354 8.46667,-8.466667 0,-4.683125 -3.78354,-8.466666 -8.46667,-8.466666 -4.68312,0 -8.46667,3.783541 -8.46667,8.466666 0,4.683127 3.78355,8.466667 8.46667,8.466667 z m 93.13333,-8.466667 c 0,-4.683125 -3.78354,-8.466666 -8.46666,-8.466666 -4.68313,0 -8.46667,3.783541 -8.46667,8.466666 0,4.683127 3.78354,8.466667 8.46667,8.466667 4.68312,0 8.46666,-3.78354 8.46666,-8.466667 z"
         id="path308"
         style="stroke-width:0.264583" /><path
         d="m 1061.1404,58.878453 v 64.214377 c 0,4.68312 -3.7835,8.46666 -8.4666,8.46666 -4.6832,0 -8.4667,-3.78354 -8.4667,-8.46666 V 58.878453 l -19.4204,19.420417 c -3.3073,3.307292 -8.6783,3.307292 -11.9856,0 -3.3073,-3.307292 -3.3073,-8.678333 0,-11.985625 l 33.8666,-33.866667 c 3.3073,-3.307291 8.6784,-3.307291 11.9857,0 l 33.8666,33.866667 c 3.3073,3.307292 3.3073,8.678333 0,11.985625 -3.3073,3.307292 -8.6783,3.307292 -11.9856,0 z m -59.2666,64.214377 h 33.8666 c 0,9.33978 7.5936,16.93333 16.9334,16.93333 9.3398,0 16.9333,-7.59355 16.9333,-16.93333 h 33.8667 c 9.3398,0 16.9333,7.59353 16.9333,16.93333 v 8.46666 c 0,9.33979 -7.5935,16.93334 -16.9333,16.93334 h -101.6 c -9.33982,0 -16.93336,-7.59355 -16.93336,-16.93334 v -8.46666 c 0,-9.3398 7.59354,-16.93333 16.93336,-16.93333 z m 97.3666,27.51666 c 3.519,0 6.35,-2.83104 6.35,-6.35 0,-3.51896 -2.831,-6.35 -6.35,-6.35 -3.5189,0 -6.35,2.83104 -6.35,6.35 0,3.51896 2.8311,6.35 6.35,6.35 z"
         id="path333"
         style="stroke-width:0.264583" /></g><text
       xml:space="preserve"
       style="font-size:6.35px;fill:#000000;stroke-width:0.264583"
       x="29.370348"
       y="107.30965"
       id="text475"><tspan
         sodipodi:role="line"
         id="tspan473"
         style="font-size:6.35px;text-align:center;text-anchor:middle;stroke-width:0.264583"
         x="29.370348"
         y="107.30965">Business</tspan><tspan
         sodipodi:role="line"
         style="font-size:6.35px;text-align:center;text-anchor:middle;stroke-width:0.264583"
         x="29.370348"
         y="115.24715"
         id="tspan477">Understanding</tspan></text><text
       xml:space="preserve"
       style="font-size:6.35px;fill:#000000;stroke-width:0.264583"
       x="79.166351"
       y="107.21199"
       id="text475-5"><tspan
         sodipodi:role="line"
         id="tspan473-9"
         style="font-size:6.35px;text-align:center;text-anchor:middle;stroke-width:0.264583"
         x="79.166351"
         y="107.21199">Data</tspan><tspan
         sodipodi:role="line"
         style="font-size:6.35px;text-align:center;text-anchor:middle;stroke-width:0.264583"
         x="79.166351"
         y="115.14949"
         id="tspan477-5">Understanding</tspan></text><text
       xml:space="preserve"
       style="font-size:6.35px;fill:#000000;stroke-width:0.264583"
       x="127.65427"
       y="107.21199"
       id="text475-7"><tspan
         sodipodi:role="line"
         id="tspan473-6"
         style="font-size:6.35px;text-align:center;text-anchor:middle;stroke-width:0.264583"
         x="127.65427"
         y="107.21199">Data</tspan><tspan
         sodipodi:role="line"
         style="font-size:6.35px;text-align:center;text-anchor:middle;stroke-width:0.264583"
         x="127.65427"
         y="115.14949"
         id="tspan477-9">Preparation</tspan></text><text
       xml:space="preserve"
       style="font-size:6.35px;fill:#000000;stroke-width:0.264583"
       x="173.31453"
       y="107.21198"
       id="text475-79"><tspan
         sodipodi:role="line"
         id="tspan473-3"
         style="font-size:6.35px;text-align:center;text-anchor:middle;stroke-width:0.264583"
         x="173.31453"
         y="107.21198">Data</tspan><tspan
         sodipodi:role="line"
         style="font-size:6.35px;text-align:center;text-anchor:middle;stroke-width:0.264583"
         x="173.31453"
         y="115.14948"
         id="tspan477-1">Modeling</tspan></text><text
       xml:space="preserve"
       style="font-size:6.35px;fill:#000000;stroke-width:0.264583"
       x="222.34033"
       y="107.92512"
       id="text475-79-3"><tspan
         sodipodi:role="line"
         style="font-size:6.35px;text-align:center;text-anchor:middle;stroke-width:0.264583"
         x="222.34033"
         y="107.92512"
         id="tspan477-1-6">Result </tspan><tspan
         sodipodi:role="line"
         style="font-size:6.35px;text-align:center;text-anchor:middle;stroke-width:0.264583"
         x="222.34033"
         y="115.86262"
         id="tspan651">Evaluation</tspan></text><text
       xml:space="preserve"
       style="font-size:6.35px;fill:#000000;stroke-width:0.264583"
       x="270.50198"
       y="111.2784"
       id="text475-79-6"><tspan
         sodipodi:role="line"
         style="font-size:6.35px;text-align:center;text-anchor:middle;stroke-width:0.264583"
         x="270.50198"
         y="111.2784"
         id="tspan477-1-4">Deployment</tspan></text></g></svg>
